<mxfile host="app.diagrams.net" modified="2024-06-08T14:53:59.649Z" agent="Mozilla/5.0 (X11; Ubuntu; Linux x86_64; rv:126.0) Gecko/20100101 Firefox/126.0" etag="Ateqc_8upTWQFWQE1SSN" version="24.5.1" type="github">
  <diagram name="Page-1" id="XYANhlT0ZrDYIEzEaCCm">
    <mxGraphModel dx="3183" dy="1300" grid="1" gridSize="10" guides="1" tooltips="1" connect="1" arrows="1" fold="1" page="1" pageScale="1" pageWidth="850" pageHeight="1100" math="0" shadow="0">
      <root>
        <mxCell id="0" />
        <mxCell id="1" parent="0" />
        <mxCell id="CgfKzShkbrhghhsWEq1q-1" value="" style="shape=image;verticalLabelPosition=bottom;labelBackgroundColor=default;verticalAlign=top;aspect=fixed;imageAspect=0;image=data:image/png,iVBORw0KGgoAAAANSUhEUgAAAgAAAAIACAIAAAB7GkOtAAAAGXRFWHRTb2Z0d2FyZQBBZG9iZSBJbWFnZVJlYWR5ccllPAAAAyhpVFh0WE1MOmNvbS5hZG9iZS54bXAAAAAAADw/eHBhY2tldCBiZWdpbj0i77u/IiBpZD0iVzVNME1wQ2VoaUh6cmVTek5UY3prYzlkIj8+IDx4OnhtcG1ldGEgeG1sbnM6eD0iYWRvYmU6bnM6bWV0YS8iIHg6eG1wdGs9IkFkb2JlIFhNUCBDb3JlIDUuNi1jMTM4IDc5LjE1OTgyNCwgMjAxNi8wOS8xNC0wMTowOTowMSAgICAgICAgIj4gPHJkZjpSREYgeG1sbnM6cmRmPSJodHRwOi8vd3d3LnczLm9yZy8xOTk5LzAyLzIyLXJkZi1zeW50YXgtbnMjIj4gPHJkZjpEZXNjcmlwdGlvbiByZGY6YWJvdXQ9IiIgeG1sbnM6eG1wPSJodHRwOi8vbnMuYWRvYmUuY29tL3hhcC8xLjAvIiB4bWxuczp4bXBNTT0iaHR0cDovL25zLmFkb2JlLmNvbS94YXAvMS4wL21tLyIgeG1sbnM6c3RSZWY9Imh0dHA6Ly9ucy5hZG9iZS5jb20veGFwLzEuMC9zVHlwZS9SZXNvdXJjZVJlZiMiIHhtcDpDcmVhdG9yVG9vbD0iQWRvYmUgUGhvdG9zaG9wIENDIDIwMTcgKE1hY2ludG9zaCkiIHhtcE1NOkluc3RhbmNlSUQ9InhtcC5paWQ6NkExNkM4OUJCNzFEMTFFNzkzRkJDMTEyMTRFMjVFMTUiIHhtcE1NOkRvY3VtZW50SUQ9InhtcC5kaWQ6NkExNkM4OUNCNzFEMTFFNzkzRkJDMTEyMTRFMjVFMTUiPiA8eG1wTU06RGVyaXZlZEZyb20gc3RSZWY6aW5zdGFuY2VJRD0ieG1wLmlpZDo2QTE2Qzg5OUI3MUQxMUU3OTNGQkMxMTIxNEUyNUUxNSIgc3RSZWY6ZG9jdW1lbnRJRD0ieG1wLmRpZDo2QTE2Qzg5QUI3MUQxMUU3OTNGQkMxMTIxNEUyNUUxNSIvPiA8L3JkZjpEZXNjcmlwdGlvbj4gPC9yZGY6UkRGPiA8L3g6eG1wbWV0YT4gPD94cGFja2V0IGVuZD0iciI/PgXQdbYAADGYSURBVHja7N0HeBTVwsbxzab3QggJIYUkEHrvHelFmhRpcgUFFIEPVBRQEVFRFL0oKBZAr4qoCKKCgPROgEAgBALpvfee3eQbXFwCJCHZSTab2f/v2efeJe7Mzp6dPe+cmTPnGOTm5soAAPpHThEAAAEAACAAAAAEAACAAAAAEAAAAAIAAEAAAAAIAAAAAQAAIAAAAAQAAIAAAAAQAAAAAgAAQAAAAAgAAAABAAAgAAAABAAAgAAAABAAAAACAABAAAAAAQAAIAAAAAQAAIAAAAAQAAAAAgAAQAAAAAgAAAABAAAgAAAABAAAgAAAABAAAAACAABAAAAACAAAAAEAACAAAAAEAACAAAAAEAAAAAIAAEAAAAABAAAgAAAABAAAgAAAABAAAAACAABAAAAACAAAAAEAACAAAAAEAACAAAAAEAAAAAIAAEAAAAAIAAAAAQAAIAAAAAQAAIAAAAAQAAAAAgAAQAAAAAgAACAAAAAEAACAAAAAEAAAAAIAAEAAAAAIAAAAAQAAIAAAAAQAAIAAAAAQAAAAAgAAQAAAAAgAAAABAAAgAAAABAAAgAAAABAAAAACAABAAAAACAAAIAAAAAQAAIAAAAAQAAAAAgAAQAAAAAgAAAABAAAgAAAABAAAgAAAABAAAAACAABAAAAACAAAAAEAACAAAAAEAACAAAAAEAAAAAIAAEAAAAAIAAAAAQAABAAAgAAAABAAAAACAABAAAAACAAAAAEAACAAAAAEAACAAAAAEAAAAAIAAEAAAAAIAAAAAQAAIAAAAAQAAIAAAAAQAAAAAgAAQAAAAAgAAAABAAAEAACAAAAAEAAAAAIAAEAAAAAIAAAAAQAAIAAAAAQAAIAAAAAQAAAAAgAAQAAAAAgAAAABAAAgAAAABAAAgAAAABAAAAACAABAAAAACAAAAAEAACAAAIAAAAAQAAAAAgAAQAAAAAgAAAABAAAgAAAABAAAgAAAABAAAAACAABAAAAACAAAAAEAACAAAAAEAACAAAAAEAAAAAIAAFBFRhQBAI0VFytuhUWERcakpGVk5eTWSiVlKLcwNxeemJqYWFtZ2Nna2NvaNLC3tbezNTM14SsgAGpmPz5+9uKhk+f8LgfGJiQpFAoHO1tvT7c+3TqOGTbA3dWliuvJys49ePyMsJ6rQbeSU9MMZAYNHR1aNvMa0KvLmKEDbawtKeqHxSUk7z966uiZCzdvh6dlZBobGzk7ObZr2XzYgF5D+/cS/lnF9VwMuH7oxLlTfpcjomPzCwotLcw9mrh07dBW+AY7tPatRwUSE5+4/+jpI6f8hLo1PSNLKIHGjZyEjzCkf88h/XoYGdX9z7a0tPTwyfM79uw/e/FKQWFRXW1GI8cGHm4ubo1dmrq7tmnh07FNCytLC35QVWeQm5tLKew7fPLdT76OT0yu6AX9enReufhZn6bulaxEqVRu/u6Xzd/+nJdfUO4LLMzN5s+aPH/mJENDQ8pcnZfrPtv28579ypKScl/g5Ojw6sI5Y4cNrHw9AUHBb63ffOV6cEUv6N6x7eqXn2/m5aHjBZKRlf3ep1t27T1UUYG4NGq4YtEzIwf1rcONDI2MXrrqg8CbITpXnRkYCD/Szu1aDejZpXe3jsIvjp8YAVAZ4We2+sPPf9i195GvNDE2fnfF4vEjHqvodzvv5beEI9BHrqdrhzZffrCKpoAgJCJ6zpI3hKPdR75y0uND31m+yFBe/iWrH3fvW/XBZxXVmGqmJiYfrnqxbqvOygWHRsxe8kZCUsojXzlz4ujXl86vqEBq1fXgkOkLlmfn6Hq9YW5mKjSYpowZ3qNzO35rFTFcuXKlPn/+Fe9uEJqxVYyKg8fPtPb19vJo8sB/ysvPF34SARUfft5/uiPp7KWAMUMHVP3MhiRFxyZMnvtSYkpqVV4cdCtUyImh/Xs9/J92/vn3irWflJaWPvobVCoPHDvd0sfL29NNN+Nw6nOvpKSlV+XF/5xgTB/Up7uWNzI3L//J55alpmXo/g6mUCiFQN2179D+o6fsbKx9mnoI7QNqfALgHqHq/3TL9motcvzsxdFD+ttYW92XIu99euLsxaqvJDE5NTU9Y3DfHvrb8FIqZy5cERWbUPVFbt4Od3Swa9eyedk/3rgdNm/ZWyWPOvZXE2LiyOkLjw/pb2tjpVMFUlRcPOOF5cLBQdUXCbwZ4urs1Kq5tza3U/i9HDnlV792ttT0zP1HT/915JS7q7OnW2Mq/bL0txuo0IZ9f+MWDZZ6a/3msn+5fO3Grr2Hqruen38/ICyot4X/w659QbfCqrvUB599k5aRWfYvb320ubhYUa2VCM21tzd8qWsF8u1Pe0LCo6q71Hsbt2Rm52gzpX74dW893eWE4p295I15L78lHH5R7xMAd04dZGVrch7z8Knz/mXq7i0/7tZsA9Z9tk0/S760tHTrDk0KTUjfz7/9uewhsN/lQA3Wc+jEOZ1K35KS0m0/7dFgwfSMrK9/+FVr23nq/GVt5k1tOHTy3LCp8/cdPknVr+8BsFfETvDHwWOqJ4VFRYdPntdsJar+pnpY8teDQ6Orc/KnrD37j6pP9wuNeo23YfdfR3SnQPyvBWl8WLpr32Gtbee5SwHSaPovXLn2zQ8/UyqVBICeBoBCobhatWu25boceFN9ECq0izVfj16eBbp09brGy6amZ0TGxP+7niAR2xCkOwXif1Xz3SAhKaWS7ss160ZIuGR2wu92/vnUopW635eJAKgV8UkpyipfOSz3V6d6Eh2XIGYzqtIDUnpi4kW1e9RXSiNj4jTfAbRVaVZFRHSsmMW11o6MjZdUg/XcpatPzl+WnJou02N6GgDZOXliFlff+pibly9mPYVFxXpY+BlZ2WIWV5d5fkGhiJIv0p0CKRZ3LkJrpzIeuAIvATdDwifPfakqN14QAJJiZ2MtZnF7WxvVE9UQJRrTz9vWHf4tPQ2/O9u7352lheaFb65L94iaGBvX4eJVV9Et7vVaVGz8jBeWSy/bCIDKODs5Wltpfi+uujdxY+eGYjbDo8pDDEmJexNRn1o9LlNTd1cR36Cr7hRIs0qHGHmkpg/dmVhLpHrVNDwqdtailZKMNwKggo8tNxBzF6X65vJ2LZubmphovA2d27XSw8Lv16Ozxsu6NXZu1LDB3fV013w9Xdq31p0C6d21g8bL+jR1F9mchezOreZhS1atKykp1bcPrr/dQOfNnKTZgoZy+egh/e+eSTAzHTmoj2br6dOtk72djR6WvFCJt2zmpdmyY8qMCje4n+a3Uo8ZOkCHWgBeHhrfofrIYfJQRYdOnPt063Z9+9T6OxxNc2+PYQN6Hzh2uroLTnp8qKuzU9kg2XPgqAbHDovmTNPbwp8zbcJLqz+s7lJWlhZPTxmr/qeXR5PBfXscOnmuuut5rE+3Vs29dKpAnp0xceXaT6q7lHDsP+OJ0VrbSDGJWy25efkFxTkZOSk5efk5mYr8vBLtvO/GrduFxn33jm3155eo16OBxicmj5zxfLXuB3Zp1PDP7zY+0Oh+d8NX1b0f+Mmxw99ZvkhvS760tHT6guXn/a9Wa6l3Xl345LgRZf8SHZcwcvqCvPxq9MUSUmTv95uauDTSqQIRDiAmz3upuveFfLjqpYqGp63P+0bJydjPglL3qf+iKJblZcmy0mQp8bLUOFlKnCwhUlZUO2fsGzVscHDHF/rTO0OvB4OztrJs27LZH3+fqOJoYvZ2Nt9+8s7DdUePzu39A29U/Z4A4Sjjo9UvG+nxrAAGBgb9enQ+ePxs1YcWmD5h1MKH2ky21la+Pp57D50orVoDzNjY6KsPVrX29dHBAunfs8vewydzcqvaQVloej4zbYL09o2z8V8FpvxR9i9yQ5mphcymgczZQ+bVRtamp6z7MJl3e5mDk8xALstMFUKjJhsfwj4ptBEJAL3g7urStoXP0dMXih7VJd+jSWOh9m9e3owihobyEY/1CbwZor5JtRLCKze+u8LM1FSm3ywtzIcP7H38zMX0zKxHvlio+l9dOKfc4Xy93JsID+EbfGQfFTtbm68/XNWzS3vdLBDhqHPYgF6n/C4/skuiXG6wZN5TS+bOlN5ekV4QfSRqfRXyUmZlJ3P1lrXqLmvfT2ZsKkuKlikVNbMNgTdv9+3eSWjrEwB6wdPN9fGhA2ITkkIjois6bHxm+oQNa5ap+5+U8xojI2ElQpPiyvXgirKkgb3dqhfnv/TcLD2fCaBslTdh1OC8/MLrwaEVNcJ8mrp/8varkx4fWslg7s29PYf273kzJCKu4vt7Rw3ut/n911r4NNXlArGxtpo4eohCqbxxO6xYUX591qaFz6fvrJDqtd/AlN/jc69VaxETU5m7r6xdX1lupiw5pmY241Zo5OQxw/Rh/gCmhLwnJCJ636ETFwOCouLiiwqLzcxMm7g06t657fjhg6re3z8rO/e3/UeOnva7GRKelJKmOnHUspnXoD7dhd82E5aWKz4x+de9h4SD39thkRlZ2cIPz8nRoW3LZkJr6fEh/as+g+Z5/6t7D528EBAYGR1fWFQkBK2Hq0uXDm0mjxnavlV9mhM4MztH2BXPXAy4FRaZnZ17Z05g54bCRxg6oFenti0lvCf8HfleaMYJzStuf9lf38iKCmtgS4TDDuGggQAAAC05EvXhrXRRA7Umx8p++a8sN0vslvh4uv21fbNcLvFGgJx9DoCOcDQXO8FZQ1fZ1JdlFqLvjQuJiP7r6CnJFzgBAEBX+Nj1NzQwEbkSeyfZxEV3rgyLtHX7LgIAALTEwtiht+tc8etp5C4bJrqT1JXrwdeDQwgAANCSVg1GDnBbbCw3F7mell1lbXuL3Zj6OwdyFXERGIDOKVTmhGeeTS+IKinVvHt/fr5ixf8dSU3RfNIOK0uLC/t/1NqA29pHh3QAOsfU0KqFwxDx6yla0m7hyrUaL56Tm3fs9IWhA3pJtZw5BQRAskY81qddq+Zi1rD/6GkJlw8tgEcrKSmNTUiMiI5LTc/IyyvIzc8XOXeEhZmpna2Nj6dbmxbNuCsYZWVkZoUIu1pC8p2dLT8/v6BQzMyXKlaWFt4ebt07ta3kVnYtyy9WBkRlJWcXauG9uvUffjXolsaLHz97UVlSYiiX5rEytU+FTT+/y4GnL1z2u3wtJDy6qLhWJu+1tDAfNbjfnKnjfcTNCYV6LSEp5cgpv3OXAi5eDUpMTq29N+rZpf3cGRPFTMgjXqGiZN3ekM+OhGflK7T1nqUNTawNizSciTojKzvgerBUb8DmIvB9FArFsbMXf917SPhBKhRa2kHlcoOnJo1ZtuBpjScXQ31UXKz44+Cxn/84eOFKoDbfd2DvbmtXLG7YwF77H7lIUTJ2g9+J4FQtv69V4gWrRD+NF186b+aCp6cSAFImNLd/+HXv1h2/qQbw0b7Wvj5frV/VyLEB30UVPfPimxcDrmu27JVDv9ThliuVyu27//rsmx11tbM5OTp8s+FtX29PLb/v6t+C1+2rg571RgVpjrd+1Hhxoc207b9rJPkj4hTQnaP+bTt+2/zdzozMrDrcjOvBIdOff3XnV+vtbG34UqqU2Xn52Tn17/Dl6Gm/tZ9sCY2MrsNtEIJn5gsrfv36IzdXZ629aX6xctPh8Lr5jZs5KEztjAozNFv8YkBQSUmpJMcF0vdeQH6XA0fNWPDexq11W/urhEfFLn79/dLSUhmkKCUtY/4ra4SGS93W/iqp6Xc2ppYubpXLPyIzt1BZV5+3yKqJmNMDEdGxktwn9TcAhF3/zQ8/m/rcspCIaN3ZqlN+l3ftO0RdKT0nz/uPmPbc38fP6s4m3QwJ37J9t9beLiOvuC5/75aNxSx+43YYASAdUbHxE5958budf+rgtn385fePnNwK9csX3/0ye8nrj5zqS/u+/P6Xas2oLIarvVkdftJiC1EnuwgA6fC7HDj2P4t0dpin+MRkoR1ApSkNypKS19dtXLdpW0mJLp7Zy8rO3XvopHbeq52bjYtdnWWA0sS6VK75iA5hkZwCkoRDJ8/NXLhC2O91fCOpOqVR+7+0+sPtu/bp8kbuO6ylAJAbGKweX5fzsinMHMScMyAApFD7L1j+rtY6+GvsUkAQtacEvP3xl78fOKbzDeJrygomZK5x03s2WTTEq84CwFTzAIiMkWYA6FE30PP+V+tF7S/7pztQbb/FR5v/FxwWodmyH69eZmFuJkOlfti193+//K7721lQWBQTl+DRpLF23m7tpJa9mzms3x9yKSJTqd3TYkoTK42XzcvPz8nNk96c3voSAEKVOv+VNfWi9pf900Optt/iYsD185evabasuZmpDJUKuhUmHP7Xl61Ny8jSWgAIRndoJDyKFCX5RVrt7LBrr+zt9Rc0XjwpJY0AqJeE9BZqfx0/7/+A2j7csLDQfMINAwMDGSrb3woWvbZWm13sxR5wFBVp/01NjOTCQ5vv6O0mqiNQcmqal0cTie2renENQDgWCwmPql/bXNudRgwNNf/qtXbKuJ76dOt2LZzEQ3XZWFuJWTwzK0d6ZSL9FsApv8s//X6Avb8G5ebm21hbUg7lEg41tHl3lY4rjU0qOXi2NCSqVAdubbEUN+5ZthSHTZN4ABQXK1av/5zfIbRm9UebuY/vbktx92Hltt+EBqOObI9ViajvJTsnjwCoZ7b8uCssMoafYs2qR2e3tezS1aAzF65QDoKSfSeVX+/SqU0yEXftSvzMPDpIytcA8vLzv/xuJz/Fcom5kFtQWEgBlmvj1h8phDty8xXf7NG1jTLkuEevAuD7nXszs3P4MZbL2oqT+DUs6FboiXOXKIc7h/8XAoUM0LWtsjBgCvQHSfYUkBDXW3fU8LW45t4e7Vo2d3d1tjCvUh/Kn/84cCs0Unplm5Obxy/nYT/tqcm+Bt4ebu1aN3d1drKzsa7K64Xs0Z34KY1KYH8gAOrSsdMXklPTa+pgeebE0ZPHDHNrXL1+xOf8r+psANiIaAHo5rhmdauwqGjPgaM10CSXG0wYOfjZGRN9PN2qtWBWTq4OtT+MdbFiKWCmDf0JgF1/Ha6R9Tw5bsSyBU/biutBLDHZTCP6kEMnzomfnszTrfHHq5e1a9W8vpeGgbebDm5VsYwA0I8AyMzOOXbmgsiVmJmarH/z5eEDe0uyiETdZsyR1EOOnPITuYYendt9se4NaQw2IO/UwqChQ2lymk5tVaG4/dZacuNAyKR6EdjP/1pxsahhf4Ta/7uNa6Va+/9zqkHzr75+DaqhBcqSkmNnL4pZQ8tmXl+vXy2doWaMjAz/b4bMyFCnNqpQXAtAkiOgSDMAzvlfFbmGDWte7dS2pYTrLEsRYwGVlDIUxH2u3bgtZk5p4Whj09oVEhtiT97B1+iN+QZ21rqzSSKvAZhLcQRcaZ4COu9/TcziM54YPbhfD2nXWYYiWgD0AnpAwPWbYhZf8PRUbQ7Gqb0M6NxKvuWtkrMBpWExMh24OzolLla2X/PbQqvYHYsAqOv2uFJ5K0zzvjd2tjYvzp8l+TpLzOEMvYAeCoBbGi/rYGc7e+p4yRaNmYl8YFeZ8NABqfuPyPZr3lVXkj1BJHgKKDYhScxgLE9NelwfRjozFnF+lhbAAwJvaj6/9NRxI8xMTShDLUhMThWzuL2dDS2AeiAiOk7jZQ0MDKaMGaYPPwYzU83POJfSC+j+9lCkiAljRw3pp4eFllpceC4zJV2h1XkITkRFiFlcaKsRABLP+da+3s5OjvrwCzQxNtZ42WxaAGUkp6VpPNOck6ODr7enXhVXtqJ4ZWjA/+LDirXelcA+NETjox5jY6OGDewJgHpAzAmK9q189eR3aGJiLENNiI1P0nx/a+2rV2WVq1SMvHLUP7tu7g8wTM7UeFlXZye6gdYPefmaj0LVxKWRnvwUxZx3zmKIvTJS0zI0XraDngXAG2EBdVX7GxQrjVKzqRmkHwAKERNQWEnxZr/ym35GRjLUhEIRE+rqSO9P7VzTEQ7/t8aF1tkOH58mE9F7zdPNlQCQPlNTfTkxYm6meTfQrBzuBK6ZAHDQjY4l2Vr5QoVj/6K6m03aOEZUF6CWzZoSANKXm1dAIaBaxEwUZWKiRx1AsxV1OaGKaWi8mMVbNvciAKSP2VxR/baU5h1qM7Oy9aeg3Mzq7vaaklLjsETNa0m5ga83LQAADx9aijiKT0hK0Z+CamNl52ZWN9fYTCIS5QWan6kTan+p3qxHAACi2Nlqfh4/LDJGfwrKQCZb7dW+Tt7aLFDUvEzdOraV6pdCAOgpMUc0ubo33WsdcmrgoPGyV2/c1quymtLIY5lHK22/q7LE7GqEmBV07dCaAICkiLkRTFnClZJ7mjR20jwAgm4VFBbpVXGt8mq3r8PAYQ0a2xhpqced2fUoea7mF+oNDAy6d5JsC4DO4Doqv7BAH8akkwALc3MHO9u0DE3uMi0sKjp13l/yY48/oL99I+GhtbebtP1FfxGLt2/VXJKjANEC0GkiZzR7JAZ0q0EeTVw0XrZGppJHRc77X/W/dkPMGoY/1kfC5UMA6KnsHAZ0qzHenprPgX7g2BmRwxSjkqOcdZu2iVzJsAG9JFxEnAICxGrt673zz781W1apVH64+dsPXl9KMd4n4pQs8DdZ0g2ZUvNrJL+FyK9cFzUvcftWvu6uLhIuZgLgPhqP6wt91qW9qF4iu/YeGjN0QN/unSjJfyKxWLZ/hezmPpGrSSowfPus2KGWnhw3XNqFzSmg++SJuK0fequFj5fICWMXv/ZeeFQsJXnH4bfF1/7KUtnLfo4ZRaLqN0sL89FD+hMAkKDcPM2vAViam1OA9/2K5AYD+3QTs4bM7JxJc18UM7WkRCQHy67tFL+aD67Zn0o0E7mSJ0YNtjA3k/iuy69XP4npZWRoZEgBPmDUoL4i15CekTXp2Re/+uHX2u4AptOC/xK/jq+CbYSHyJUYGRk9O32i9I9d+OnqawtA87t55VKcGkmkfj27NHJsIHIlRcXF7326pfeYp9Zv/vbS1SAxA03XVxnRIlew6Ybte1drYO7GccMHNnZuKPny5iLwfU6cvWhva+3r7dmimZettVUVlyotLRWa8ClpGQlJKYnJKbHxSeHRseFRsbfDInX2k4oZxPjwqfOjZ75Q0X/Nyc1LTc/QwlQnkTFxGi9byfbfayQpFDFxCU3dm1RxnXkFNTOWuFB6n33zk/AQDkKFvdHWxtq4CrP3JKemSeEXaKj50KrFJQZvXnbYEWZVA1thaPj8f6boQ41HANznyvVg4aF6bm1l6dTAwaWRo5mZqZWFhdzwXmspLiEpMysnL79AoVBk5+ZmZde/CVKEg00xJyuER+WvuXE7TJc/ftU3rw4/iLB3JaemCw89+gW6tJUF7dFguVuZxq9cdLyaVjNjds6ZNl5HJmsjAOpMdk6u8AiNjJbqp+Mrhs5pOVp2aoOssBrTJIRkGX8RbLMn0kpZQ/e2Ozs5Lpw9TU/KmwDQUxn6NBUJ6g1Ta9mwNbI/lspKHzF5ZGK+4aE4i98iLf1TTWt2E1YtnS/5zj8EgL7TbPAy6LOc3LySktofQsq5l2zwOtnRtdlZmaoBqwqUBplF8sxieUahYVyeYWi28bV0k/DsWhlMdMqYYUMlPfYDAYA7HnkSH3hA/wmzMzK1tttY/fPQKi+PJq8tmadX3yndQPVUSloGhYDqtgAk/OkszM0/fWe5/pz8IQD0Wlo6p4BQPRIeKUsuN/jk7Vda+DTVt+9UggFgbWkhgU9hZmpaq+tPkka3cWjzl2Ul2RmKXl8yb2Dvbnr4nUowADq0aSGB4xF7O5vaW39GZhbdQFFdhnJpnjB4cf6spyaN0c/vVIoB0LqFk6NDvf4IbVo0q9UfW1RsAtUZqt0CkOIcpfNmTtKTm371JQCEw+fpE0bV648wpF/PWl1/SHgU1RnUHOyrNOdtA8lNjbt03sxlC57W569emm262VPHOTs51tONtzA3mzpuRK2+RXBoBLUeVAwNDVs2q9LFTzcJzY1lZmqy8d0VC56equffvjQDwMLcfP2ql4yM6uVdDi89N6tWLwAIboaEU/FBpU+3jhZVm+ChmZe7ND6yr7fn7q0bRkh6tne9DgBBj87tNq1dIeR8/drsoQN61fb1qNLS0qs3brHrQ+U/U8ZW8ZUiZ77UifpObvD0k+N2b/tvc28PvnqZtO8DGNy3xw+fvV+PzgWNGtT3kzWvGtTyaPuhkTH1cfhS1IYBvbr269G56gHgUJ8vA7Rv5fvbtg2v/d9cUxMTvnrpB4DsTo8g373fbxo/4jEd386GDezXrlj8yTvLjY1r/bTVpatB7PeQ3Tmn77zu9SVVf72hXD5rcr3sLunj6bZhzSu/bvmota8P33tZBrm5enEweOV68NYfd+8/elqpVOrOVtlYW/bq0mFQn+4jB/fT2tmqRSvX7j18kl1fzzV1d/32k3dcnZ2qtVRhUdGYWYvqUS8yodXy1OQxIwb2kcuZxk6PA0AlMTl1558H9+w/Voej/NvZ2nRs06JL+1a9u3Zs5eut5ZtrSkpKu42cykhw+kzY5aaMG/7qC3MsLcw1WDwhKWXO0lU63o9ACLbRQ/qPGTZAD0d3IAAeLTou4ezFgKs3bgfevC3syrU3DbeRkZGwLzZr6u7r09TXx7ONr3fdzjR04Urgk/OXsd/rIWsrSx9Pt349Oo8fOcitsbOYVRUVF2/c8uO3v/yuU8PD2VpbtW/t26trB+HQqmWzpgbMXE0AVIVCoYiOS4yJT4wVHglJGVnZmZnZmdk52Tl5eQUFeXn52bm5paUy4Ymy5L5JKoRGpaWFhamJsYW5ufDramBv69jAvqGDfcMGdx+NnZ2Eh07dQL/m4y+++WmPZstamJvt/X6T/FEfp6CgMCsnt77fjC0oLSk1kBs0cWlENVGu7Jzcg8fPHD9z8erN23HxSQ/8OmqVg53wW7NzauAgHF15url6uLm0aubt5urMl0IAoEJKpbLP2FlJKRoOAyccPG777xqKEeUeRSWmpOUXFBYVFdfSW5iYGFtZmFtamEt4TDrtY0IYPXL09AWNa39Bry7tKUOUX4/8c6qTcqh3mA9Aj3z/659iFu/RmQAACADUQ0G3Qk+e99d4cUcHO/pQAwQA6qUNX/0gZvEh/XvRkxogAFD/nL0YcOjkOTFrGDagF8UoVTdDwodPe86r+wjhcc7/KgWiP7gILH1FxcWrP9osZg221lY9O7ejJKXqnQ1fFRYWvbpwjpGRkWed3qcCAgA1bP3n394OixSzhseHDqinY2ujKtIzMoUW3twZEykKAgCScuzMha+37xK5kkmPD6UkpeqXPw6GREQH3Qr7/eAxQ7l8xeJnGSifAIAUCL/qhSvfE7mSFj5N27Sg/49kubu6TB9/bwrVxo0aUiYEAOq9kPCoZ5auysvPF7meKWOHU5gS1r1TW+FBORAAkI6rQbdmL31D/Kif1laWE0cPpjw18/m3P10JDFY9//itZRbmZsKTn38/cPjkedUfX1syV+S4bCL5XQ50d3Uud9Kk42cvbv7fz6rn85+a3L9nF9Xzqc/dHUzQo0nj91b+X7XeLvDm7X1HTnVs02JIv57KkpLd+w5HxyVMGDmouiMklt22pyaNEXnOKuB6sJ2tdbnbULNvRABAG7bv2rfm4y+KimtgVJYnxw6v4oSxeJhQ+/994qzquUJxdyKK4JAI9R8XPzujDjfvUkDQfxavdHN1+fnLD22trR74r8mp6ef9r6mePzFqiPrv6j9Wd165sMiYCXOWKhR3Rt7dsOaV2+FRG7f+KDz/cfdfR3/dUq2xqctu25D+ojooX7ke/NTCFQ72tju/Wu/oYF97b6SbuA9AUuITk5979e3X122skdrf0NCw6hPGop6F0/Xgp5e8XlBYdDss8oUV72phLE//a0Gq2l9wyu/y2UsBqucpaek3b4fXVSEItX9Obl5UTPz8ZWtqb1h4AgC1Szgc27TtxyFT5h48dqam1jnp8aH1aEZlVItQ56pH8z/td/nTr3+o7Xfs1rGdetq7x3p369/j7jklJ0eHls296qQQomPj1YXgf+3Ge59u0bfdgFNA9d6t0Mg9B47+sGtvdk5NjuxtYW62+JnpFK9UPTlueER07Jff71T9c9O2HcMG9m7ZrBYrYndX593bNggHKB3atOjbvdOQ/r08mrjExCeOHzlYdXVE+x4fOiAqNmH95m9V//zm5z2jBvft1K4VAQCdFpeQfDnwhnDMcvzsxfCo2Np4i2emPyGBSV1QiZef/8+la0GXAoKE58qSktff37jz649q9R19vT2Fx92TD3IDof6t80J4/j9TzvtfO+V3Z5zE0tLSFe99uu/7z/Rn2CsCQNepzu0UFhXl5hekZ2SpZi7Lyy+o1Td1dnJ8dvoECr9uXQ68efjk+eTUtJKSEhuruxdpLSzMHOxtp40faWpiUu5SQi12MeB6cEhEakam8I+y/0lYZP6syep/Ghoavrt88chpz6kuAAjHE0I92Kdbp9r7RKnpGcfOXExMTnngbHsrX+8h/XrWyFucPO//+4GjRkZGNlaWzo0cfTzdO7ZpYWVpUdHrDQwM3lm+cOiUecJP7J/2dMTfx88IjSECALoRADk54m/lra7VLz1P5586FB2X8Ma6TULzrqIXCM2+t15e8PDfr1wPXvHuhopmbLe2siwbAIJmTd1nTBz97c+/q/75xXc7aykAhBp/w9c/bNm+S1XPPmzpvKdemD1V/BslJKX8uvdQ2b8IOTd8YO9Fz0wXPmy5i7g1dp4zbcJn3+xQ/XPzd7/oTwBwERgPGjts4OB+PSiHunI9OHTc04srqf0F5Q7udOTU+clzX6qo9q/Ic7OmqBsTp/0uh0XG1Pgnys7JnfHCcqGGraj2F/zvlz/K/XtwaMTB42dVj6pc5Xp4LnilUrn30ImR05/f+uPuipaaO2OieqZJofl07cZtAgD6qIlLozdfep5yqLMGX3busy+u0uAOvpj4xIUr16r7WVadk6PD2OED1f/c+efBGv9Qr7336YUrgZW/pqJs+HnPgfnL3lI9ouMSH/leFV1PFmLg7f9+qb7e+wAba8vJY4bde9M/DujJ/sYpIJTZG4yMPnnnVeHHQFHUlS+++yUhOfXfusx84Zypvbt2kMsNVX8ZPXNBRQsKh7f5BYWq58LBrHBI26aFj6npfdcJjAwNy1122viRP/9+t8rbf/TMsgWza/ATCQfUf/x9XP3Pfj06L352hpdHEwPZnUP119dt/OPgsUoWL7s3VmVck5GD+oad/6u4WCE0FyJi4s77X/3p9wNRMfGq/7pp245uHdv27V7Oaa6p40Zs+fdc69/Hz65+aYE+XAomAHDPmmUL2rfypRzq0C9/HFSH8Q+b1rZvXdWvY9/hk6onJibGOzavq1aHznatmgstP6ENITyPiI6NjInzqLlZAdQbJhjQq8vX698qW7GaGD+iCjIsE1rqPvuPZGxs5GBvKzw6tW357PQnXl+36ac9+1X/6aMv/lduAAiZ5OvtGRwaITxPSkm7HhzStmUzye9vnALCXXNnTizbCob2paSlCw/V83HDB1a99hcqLOGhej7isT4adOcf2Lub+vm5SzU5KVhgcIj6+dJ5T1X3sNrS0rxMAGgysqEQpcKRTQufpuoWya1/avmHDep779LXhYDr+rDLEQC444lRQ5Y9/zTlUC1Bt8J2/vm36iF+1FVBQeG98+AtqlOJZ2Zlq5+3bu6twVt37dBG/Twg6M4AdsWKmhkXISPz3ra5u1a7YWFtaVmmfAo1PNFhZDRv5iT1P4+c8iv3ZV3at1Y/vxJ445//L5X2PswpIMjGDBuwduXih7tPoHJ/Hz+z4d8RFHp0bleHHWdNTIzVz/MKNKkl27Vqrn5+K/ROF6PQiGj1XxrY29b3L6tz+3v39167WX4nn/at7xVC8D+FEFPmsnNDBztaAJCaJ8cO/3DVS4Zy9oR6zMWpofobvHhFk3MX7q7O6rulwqPv3Ft+vszs8O6uLnX10UpqaJQ6V2cndUxGxcaX+xp7Wxv14FeqG+zPlSkEDynOlszPXq8tmTvzneWLqP3rO6Fq69C2her5KT//nX/+rcFKvD3dVE+yc/JOnve/Hhx6t1q0s2nq3qSuPlpOXn6NrEdo4Db8d7Tn5NT0il7m5XH3kyoUCqH297t8t/eqmalJrQ6UVFc4BaSnbKwtP3jjxcF9ueGrLn35/c4GdnfOrtwKj3Ru2CA3794IH78fOHrjVmhFC4ZGxLz81npVv89Gjg2E/y0tuXe2etmaj3btPVRuhTV0QK+K5v9ysLNV133PvbJG/fch/XrWVIdIYbU+Td2NDA0bNrAvLCqKiU887Xe58kUKy5z3f+SYcULy/bq3wvBLz7x7d0V+xWfJGtjdO9n1zNI31c8f69Pd2FiCtSUBoI+6dmjz8eqXXZj9ta4JtbzqiVC5PDA8ztWgW8KjogVT0tIfGPDgAcLRa9nTF/fOhDRuVG4AlJaWWlrcq17Vg00ZGho+M/2Jmvq8Zy8FqKcBqKK4xGT1cyE2Kn9xbHyiev6WSlRyu1zZUYPUF/aF1sPcGRMluQcSAPrF0sJ82YKnp40fpT/jHeoauaEOnXA7fvbi0dMXbodHXg8OKXeGr8XPTPf599SQZpydHG/cDnvkyxrYl3+JNS7hXgC4N6mZSxEGBvd9BWcvBhw4diYsMkYoBHUroax5MyeWvUhOAKAe1jtyg0mjhy6dP8tRip0Z6kTZcwLJqelNXBo98ILM7OyHXzx22ICf9uyv+j1NtSog6Nb/fvm93P9kYmL8yguzn54yTuRbvP/a/338xXenL1yOik0o9wWODvad27Wc99Tkcv+remwiczNT1ckukQzl8kXPTCv7lxsh4RUVgtAAWjJ3xnOzpkh1HyYApE9owI4c1HfRnGk+FYyGCM04lamP9h0+2bFNi/sPXZMuB95UPbexthTqL9XzNi2anf3z+9j4RIXyXv+W1PSMig6BK1FQUJCemV32VqlH8ry/K4uvl0d5n8th/IhBs6aMdW5YToV75dDOfyvHKjVlhPr9neWLhCe5efnCp07LzEpMShWaQUKJNGzg4ObqbGdjXdGyiSmpkTFxquetfO/d3zB22MCh/87Qa1ZmuIv5syY//eT4yrdHCDaz+0fIaO7lXm6LRIjq2VPHN3Z2kvA+TABImYW5+YSRg2ZPHSfJHmx1rk+ZEQW27djd2Lnh9PGjVH0NA2/efnH1evVp/b7dO5dd0NLCvPm/86LULdUxgXBQ3NTdtWUzr/atfbt1atuqmXclZwg1HipKg0+9e+9h9fNeXTqUbU6Ve0nW1MSkomkSKi0ED1UT2dPNtYVP03atmnfv2LZNy2b60DvOIDc3l1+yLouJT+w/vtr36HZp33rc8IFjhg0UfnWUYe157pU1B8pMwmxkZOTRxEU41E1ISin7su2fv9+jUzsd3H6lUhkcGunj6Vb2VjIdkZyaPnL680LbSNWKPbZrq1tj51p6r8DgEB9P9wdaBvqAFoB02Fpbde3YZkDPLgN7d2Myd+14bck8vyuB6tGbFQpF2RtoVeZMm6Cbtb/sn3PcrZrrYvf2qJj4ucveUtX+sn8GOKq92l9ZUuLe2KWoqNjUxFjf7ocnAOor4afbxKWRp1tj4fCtZXPvNr7eQnOe4Ry0zNXZacfmDxa8+nbIQ/W+TA8uIdY4v8uB0XEJ5y4F7DlwTN1Z09zM9JUXZtfSO+49dGLle5+oekBdObRT38ZC5xSQrsvLz//ryCnV6QUrSwvh4WBr42Bvq8E1Q9SS4mLFb/uP7Dt88trN2xmZWWampk0aO/fp2uGpSWNqqueinhg1Y8HDfUbXvb504ughtfSO3UZM8/XxHDN0gHDwNHbYQEne7UULoB6zMDd/YtQQykGXCbXGpMeHCg+KooabuXL58sXP1l7tL0jPyBzct4fefncMAgNA55iYGA8f2OeP7zbOfnJc7b3Lus+2lZSWrl7/ebvHnmg/aGJwBfME0AIAgFo3bcLIwsKiZl4eXTu00UKfnO4d25oa3+v+5GBnq28FzjUAANBTnAICAAIAAEAAAAAIAAAAAQAAIAAAAAQAAIAAAAAQAAAAAgAAQAAAAAgAAAABAAAgAAAABAAAgAAAABAAAAACAABAAAAACAAAAAEAACAAAAAEAACAAAAAAgAAQAAAAAgAAAABAAAgAAAABAAAgAAAABAAAAACAABAAAAACAAAAAEAACAAAAAEAACAAAAAEAAAAAIAAEAAAAAIAAAAAQAAIAAAAAQAAIAAAAACgCIAAAIAAEAAAAAIAAAAAQAAIAAAAAQAAIAAAAAQAAAAAgAAQAAAAAgAAAABAAAgAAAABAAAgAAAABAAAAACAABAAAAACAAAAAEAACAAAAAEAACAAAAAAgAAQAAAAAgAAAABAAAgAAAABAAAgAAAABAAAAACAABAAAAACAAAAAEAACAAAAAEAACAAAAAEAAAAAIAAEAAAAAIAAAAAQAAIAAAAAQAAIAAAAACAABAAAAACAAAAAEAACAAAAAEAACAAAAAEAAAAAIAAEAAAAAIAAAAAQAAIAAAAAQAAIAAAAAQAAAAAgAAQAAAAAgAAAABAAAgAAAABAAAgAAAABAAAEAAAAAIAAAAAQAAIAAAAAQAAIAAAAAQAAAAAgAAQAAAAAgAAAABAAAgAAAABAAAgAAAABAAAAACAABAAAAACAAAAAEAACAAAAAEAACAAAAAEAAAQAAAAAgAAAABAAAgAAAABAAAgAAAABAAAAACAABAAAAACAAAAAEAACAAAAAEAACAAAAAEAAAAAIAAEAAAAAIAAAAAQAAIAAAAAQAAIAAAAAQAAAAAgAACAAAAAEAACAAAAAEAACAAAAAEAAAAAIAAEAAAAAIAAAAAQAAIAAAAAQAAIAAAAAQAAAAAgAAQAAAAAgAAAABAAAgAAAAVfX/AgwAgoBhOPJ6cEoAAAAASUVORK5CYII=;" vertex="1" parent="1">
          <mxGeometry x="698" y="450" width="152" height="152" as="geometry" />
        </mxCell>
        <mxCell id="CgfKzShkbrhghhsWEq1q-2" value="" style="shape=image;verticalLabelPosition=bottom;labelBackgroundColor=default;verticalAlign=top;aspect=fixed;imageAspect=0;image=data:image/png,iVBORw0KGgoAAAANSUhEUgAAAOQAAADvCAYAAADikHhOAAAABHNCSVQICAgIfAhkiAAAABl0RVh0U29mdHdhcmUAZ25vbWUtc2NyZWVuc2hvdO8Dvz4AAAAudEVYdENyZWF0aW9uIFRpbWUAU2F0IDA4IEp1biAyMDI0IDA1OjQ1OjA0IFBNIEVFU1TvlVpmAAATXklEQVR4nO3deXgc5X0H8O+8s6tjdUuWrMOS7fhCGOMDN1xxQrBxQiGUqxRqEx4oJJQakqdAuRtCSAG3XCmFBHDAECC4lKuAcbiKwQFjMJjYBhufWJctyUb3sTsz/WNX0s7u7KWd2Rlrvp/n8aOdd973nZ+889VKs7Mzkt/v10BEjiDsLoCIRjCQRA7i+fjjj+2ugYhCJE3T+DfkWNA/CKgqoIT+qSqgaICiDLdrw+0qoGpAQAlbDn3VNMAfbNf3D5vboF2L0Q5VBQIG/RPMFz4uqg6D+aJqMWjXLfcP6v//Cn1AcT6k0kJI40shTa6E9K1qSNNrIc2ozdjT6IxA9g8mfGI0wx1DCe5YBk+ApiihHdLoyQuti9w5VDW0k4bGaWFP/vDOqxn0D9vJI7YzsnNoEd+T8TgtKiRaRN0qMOC3+xlzlwIfxLxpEAuOhvib7wD5uZZtytJAaruaoH2wFdrX+6G1d0I72AkMfW3rsGqzRNbJ8kKccQLkH/8A0rQJpk9veiC1LXugvvJnKGs2AM3tZk5N5Cji9OPh+dm5wIRy0+Y0LZDqi+9D+f1r0L5qMGM6osOGuGAhPFedAxTnpz1X2oFUn1+LwIMvAo1taRdDdNjyZUNedjbki09Na5pRB1J9eR0CD7wA7DuQVgFEY4l03JHw3n9V8KjtaManHMiGVvhvegTaR1+OaoNEY15NObyPXANpclXKQ1MKpPrKBwjc9CgwyMPuRHEV5cH7+A2QjqhLaVjSgVTuew7K714eTWlE7lTog/fxGyDVT0x6SOJAahoCN6+A+vzaNKsjcqFCH7yrfglp4vikusc/uZxhJEpPZy/8l9wJHOpKqnvcQCrLn2EYidLV1A7/z/8zqa4xA6k8thrK46+bVhORm2kffQnliTUJ+xkGUlu/FcryZ0wvisjNlLtXJTydNDqQHT3wX/OQVTURudegH4H7novbJSqQgbue5icxiCyivrwO2rZ9MdfrAqntaIT6wnuWF0XkZvHez9cFMnD7k5YXQ+R26ur1QGOr4brhQGqf7YC2fmvGiiJyM+WpNw3bhwOpPPy/GSuGyO2Ul9YFL8cSIRjIpnao73ya6ZqI3OtgJ7QPtkQ1CwBQVn+Y8XqI3E597/OoNgEA6uqPMl4MkdupG6I/UyxwqAvalt02lEPkbtoXe4HeAV2bMEopEWWGtqtJtyy0j7fZVAoRaXtadMtC3dloUylEpEVcJE5oe/fbVAoRaRHnjQteT5XIRgc7dYu8PySRnSLuwsVAEtkpN1u3yEAS2alAf4VzBpLIRlJRnm6ZgSSykVSnv16riPwdlogyR5pSrVsWUl2FTaUQkTS1RrcspEmp36GHiNInTa+NPqiT6t15iMgc4tj66DYxd6oNpRCRdOKsqDYhzZ4KSJIN5RC5WHE+xIKjo5oFcrIgGbx0EpF15LMWACL6hVAAgHzmgowXRORm8vkLDdsFAIhT5gM+vh9JlAli8V8BMd5uDJ6p48uGfMGiTNZE5FrysrNirhs+dU6++FRA5pl0RFYSf30cpGkTYq8fflRWCPnv+SpJZBlfNjzXL4nbRfeSKF9xJuDLsbQmIrfyXLcEKC+K20f/O2pxPuSfn2tlTUSuJE4/HuK8kxL3i2yQL1wM6dgjraiJyJWkI+rguf3SpPoaHsXx/vvlQKHPaBURpaK6DN5HrgWyvUl1Nz6sWl4M771X8pQ6onQU+JD12A3AuPh/N4aL+T6HdMJMyP98nil1EblObQW8z/4i5gkAscR941G+9DTISxenVReR24jvz0XW87+CNDn1zxp7EnWQb1oKLRCA+se3R1UckWt4ZchXnw/5oh+MegpJ0zQtmY7Ko69CufvZUW+IaEyrrYD33mWQZk5Ka5qkAwkA6tpNCFz7ENDZm9ZGicYSeeliyNf8XdJHUuNJKZAAgLYOBG5/Euoa3nWZ3E18bzbkn54Bae400+ZMPZAh6ruboNz9LLSvGkwrhsjx8nIgTjsO8pJTghepMtmoAzlE/dMGKA+8wGDS2FUzDuK4mRAnzYFYdIylm0o7kEPUtZugPPIKeEdmOiz5soGSQkjlRZCqyiBNqYY0rRbiqMlAdVnGyjAtkMP2HYDy4vtQ3/0M2pY9pk7tSlne4OdUhQQIEXosAFkCJP2yJERYn1D/yOWI8VL4cqL+ofVSrP6yCKtJGhkbWd/QeKP+Q8uh+YfHeETwzLHhOSPmD1vW1Tc8Z8T3I6SoO085gfmBjKBt2wdtVxO0HY3QvvwaWlfEEdqh/xwRtnOE/2fLYU9E+PrQOilWf0/Ekx3xZEiRT47R9oaWI3feoZ0jiZ1/eOeICI9hfxOO0tHhzfJAElHyeM0OIgdhIIkchIEkchAGkshBGEgiB2EgiRyEgSRyEAaSyEEYSCIHYSCJHISBJHIQBpLIQRhIIgdhIIkchIEkchAGkshBGEgiB0l4KwEao9Q+ACqgKQCUsK/qyLKmGPSJsWzFeMP5LNgGJEAuATzjAG8F4CkDPOWAtxLwzQXk0gw8IUHOCKTWn+KTYvZOkuo2NEALJBifxvdh5v+DyqvMpy13NlC4ECg5B8g7wdJNWXtNnf5tQNdbQP92IHAA8LeGvh4AAi2WbZbIMlmTgLKlQMVVwVdRk5kfyN6PgbYVwDcvAf5mU6cmcpSyS4Dqm4GsyaZNaV4g2x8DWu4B+jebMh3RYaPyeqDqFkD40p4q/UC2PQw03wEM7km7GKLDlncCMPlJoOCktKYZfSDbHwOabmMQicJV3QxU/2rUw1MP5MAuYPcSoOfDUW+UaEwrXAxMeREQuSkPTS2QB58OhpGI4ss7Fpj2OiAXpzQs+TN12h4Bdi9NtSwid+pZD2xfCKg9KQ1LLpDNtwF7fwKAtwEhSlrvRmDnOSkNSRzIvZcBTb8YbUlE7ta5Bth7adLd4wfy62VA26PplkTkbm0rgNbfJdU19kGd9ieAPReZWRaRu9V/Avjmxe1iHMi+zcDWWVaVReROubOBIz+L2yX6V1ZtMOU/RIkoCX2bgP13x+0SHcjGG4GB7VaVRORuTf8KBNpirtYHcnAvsP8+q0sici+1F2i5I+ZqfSAbrkHwE9REZJn99wQ/F2xgJJB9m4FDz2WqJCJ3a3vcsHkkkC13ZagSIkLrbw2bg4H0NwEH/5DJcojcbXB38NS6CMFAtj+R6XKIqPONqKZQIFdmuhQi6no7qklgYAfQ/6UN1RC5XPe6qCaBrndtqISIoPYE/5YMI9D9nk3VEBH69L+dCvTvsKkSIoo8TVXA32BTJUSEwSbdosDgXpsqISIE9usWeTs6IjsFDuoWGUgiO0XcfoCBJLKTXKRbZCCJ7OTR3wyWgSSyU/ZU3aKAyLOpEiJCbr1uUUQmlIgyKGemblEgZ7pNlRC5XO7RBgd1cmfbVA2RyxV8P6pJIP8EGyohIhQujmqSNKVXw6f5ANTMF0TkVp5xwOz9iHyjQ0DkGr50EpGFyi6C0buOYmQlEWVM+T8aNgcDWXI2IPIzWQ6Re5WcC2RPMVwVDKTIA8qvyGRJRO5VfWvMVSO/xFZeDcBjfTFEblZyftTJAOFGAumpACr+KRMlEbmTyAdq743fRbdUdQsgCqwsici9au8BvJVxu+gD6SkDam63siQidypdAoy7LGE341uab19oeFVlIhqF3DlA/QeAlJOwq3Eg/c3AlpmAcsiK8ojcI2siUL8e8IxPqrvxB5S9VcC3VsVcTURJkIuB6W8lHUYgXuIKFwE1sW+9TERxZE8Bjvgw5gkAscR/Caz8F6DiqnTKInKfojOA+o1AzoyUhyb+nbT2/pjn3RFRGCkr+D7j1JcAuXB0Uxge1DHSshxovG5UGyEa87KnBI+7+OalNU3ygQSAjtXA7iU8+koUruIqYMJdSb2tkUhqgQSC9yL4+krg0H+nvXGiw1rRaUDVjUCeeVfdSD2QQzpeAxquA/o3m1YMkeOJQqD0fKBiGZA7y/TpRx/IIYf+B2i6lcGksStrElC4ECg6HSg+09JNpR/IIR2rgZY7ge61pkxHlFEiH/CUB0/+zqoLXsA4dxbgmx9czhDzAjlkYBfQvhLoeBXo/cTUqSkBKQeQZABy8KvusWfkcdR6T9hjLyBJBu2R4zzR2zDaVtLjPCnU7gEkkcL3FKc2Ew7EmMn8QEbq+xzo/xLo2wL0bQIGG4BAK+BvBbS+sEpyUtxxjJ7o0BOV7o4Tvq20dpw4NaS640TWEHEbMxobrA8kESWNZ48TOQgDSeQgDCSRgzCQRA7CQBI5CANJ5CAMJJGDMJBEDsJAEjkIA0nkIAwkkYMwkEQOwkASOQgDSeQgDCSRgzCQRA7CQBI5iMfuAsiZ+jU/FE2DoqlQoA4/Dgwvh9rCHgegmDZGQWhc5BhoCGhJjEGoTdcePmZkXgAokX0Y581DhTcfZZ48lHvyUZlVgLm+CSj1ZO5yKWMykP2aP+YTEBh+nOQOEHociDFG0cJ2kCTHmLYdhO3whmOGwqDfOSOD0qv67X7KHG22rxoLC6fjnLKjcUL+ZEu3Zfk1df7S24ydA2044O9Gq78bBwJdOODvRpu/R/dTOOZP0QQ/EbkzUSZNyi7F0nHHYNn4BRjvLTB9fksC+fzBz/HCoc/xZsd2tPi7zJ6eyBF+UnE8rq9eiMnZZabNaVogdw+04/6WtVjZugHfKH2JBxCNEddXL8QtNYvhE1lpz5V2ILf1H8BtDWvwdPvGtIshOlxNyCrCU1MvxHcLUrtjcqRRB3JHfxtubXgdz7RvhApe2pVIQMKNNYtw64QfQh7lO4opB3JQU/DLhtexvOltBEKHjIloxOKiGXhx+j8gV3hTHptSILf0teDMbSuwY6At5Q0Rucm38+qwpv5yFMu5KY1LOpCf9jbg5K0P8oANUZLm+SZg7cwrkZfCwZ6kftF9q3M7vrPlNwwjUQo29jbg7O2/T2lMwkA+1fYJFn3xEN+AJxqFP3Vsw6W7/ph0/7iBfKJtA5bu/EPaRRG52YrW9Xj4wAdJ9Y35N+QnPfswf/M9phZG5GafHHU15uVNiNvH8BXykNKLM7evsKQoIre6eNfTCfsYBvLCHU+hYbDD9IKI3Ozz3mbc3fxO3D5RgVzR+iFe/WarZUURudmtDa+jLdATc70ukJ1KP67d+7LlRRG5Vbc6iDsa34y5XhfIXze+gUN8r5HIUve0/B8O+LsN1w0HssXfieXNb2esKCI3W9n2kWH7cCDvb1mbsWKI3O6h/esM2wUA9KiDMTsQkfl2DxzExp6GqHYBAKvaP0WH0p/xoojc7I2ObVFtAgBWtm7IeDFEbvd251dRbeKAvxvvdu20oRwid1vXtTuqTbzbtcOGUoioRx3E7oF2XZtY28lXRyK7bO3br1sWm/tabCqFiHb06y+HIxoHv7GpFCJq8XfqlkXzYGeMrkRktdaIU+hEtzpoUylE1BqICKRNdRARAK8k65YZSCIblcj6e08ykEQ2KpRzdMsMJJGNJmWX6pYZSCIb1eeO1y2LaTnjbCqFiKICOT2nwqZSiNytwpOPmqwiXZs4yldpUzlE7nZqcX1Umzg+f7INpRDRoqLpUW3ixAIGkijTsiUZZ5UeHdUuxnnyMCu3yoaSiNzr3NI5hveNFABwYfn8jBdE5GaXjT/esF0AwNJxDCRRpszPq8X3CqYYrhMAUOUtxPllczNaFJFb3VizKOa64TN1rq+O3YmIzDE/rxZnlUQfzBkyHMjZvmr8qHhmRooicqvfTv7buOt157LeVfcjS4shcrOfVX4Xx+TVxu2jC2R97nhcMf5ES4sicqM5vhrcN/GshP2iPu2xvO4M1GYVW1IUkRuVyj68esRlSfWNCmSeyMKqaRdBQDK9MCK3yZE8WH3ET1HtLUrcGTE+D3lc/iTcWXe6qYURuY2AhBdmXIJv59elMCaGa6tOxnmlc0wpjMiNnpn6Y/ywKPoTHfFImqZpsVb2qoM45YuH8OfuPenWRuQadVnFeGnGpZjjq0l5bNxAAkC3OoBFXzyI9d1fj7pAIrc4rfhIPDX1QhRFXLwqWQkDCQRDed72lVjd8cWoNkLkBr+ZeDaurFyQ1hxJBRIANGi4ad9ruKPpzbQ2SDTWzPZV49lpF2GGCZfDSTqQQ97o2IaLdz6DRn9H2hsnOpwVy7m4uuok3Fyz2LQ5Uw4kELzR5C8aVuO/Wt5HvxYwrRiiw8HU7HG4ovJEXF5xInKF19S5RxXIIc3+Tvxb4xt4YP/7ZtZE5DhTsstweslMXFA2D8fmT7RsO2kFckhroBv/0fQOHtj/HnpVvxl1EdlmvDcf9bmVmJVbhXl5E3By0TTUZZVkZNumBHJItzqAVe2fYWXrR1jbtcusaclGPuGFDAFZEpAlafixRwq1QQp9Da0fWmcwRpYkeCAP9xvtGI8kICTJtO14JRkFcjbKvfkZC14spgYyXJcygM96G/GX3iZs7m3Blr5mbOptQofSb8XmDPmEN86TJuAJe6Ii+wzvcBE73Ui7FHtMxLyZGiNLEjySbDhGvzPqv2dPqF+OZO7fQ5Q6ywIZS7c6gFZ/N1r9PehVB5PcaRL/FOXORGNBxgNJRLHx7ldEDsJAEjkIA0nkIAwkkYMwkEQOwkASOQgDSeQgDCSRg/w/Dji6v1WKjEUAAAAASUVORK5CYII=;" vertex="1" parent="1">
          <mxGeometry x="-134" y="430" width="133.56" height="140" as="geometry" />
        </mxCell>
        <mxCell id="CgfKzShkbrhghhsWEq1q-8" style="edgeStyle=orthogonalEdgeStyle;rounded=0;orthogonalLoop=1;jettySize=auto;html=1;" edge="1" parent="1" source="CgfKzShkbrhghhsWEq1q-6" target="CgfKzShkbrhghhsWEq1q-7">
          <mxGeometry relative="1" as="geometry" />
        </mxCell>
        <mxCell id="CgfKzShkbrhghhsWEq1q-6" value="User installs Card" style="rounded=1;whiteSpace=wrap;html=1;fontSize=23;" vertex="1" parent="1">
          <mxGeometry x="20" y="300" width="235" height="110" as="geometry" />
        </mxCell>
        <mxCell id="CgfKzShkbrhghhsWEq1q-10" style="edgeStyle=orthogonalEdgeStyle;rounded=0;orthogonalLoop=1;jettySize=auto;html=1;exitX=1;exitY=0.5;exitDx=0;exitDy=0;entryX=0;entryY=0.5;entryDx=0;entryDy=0;" edge="1" parent="1" source="CgfKzShkbrhghhsWEq1q-7" target="CgfKzShkbrhghhsWEq1q-9">
          <mxGeometry relative="1" as="geometry" />
        </mxCell>
        <mxCell id="CgfKzShkbrhghhsWEq1q-7" value="Profile for that user is created on daftra" style="rounded=1;whiteSpace=wrap;html=1;fontSize=22;" vertex="1" parent="1">
          <mxGeometry x="290" y="300" width="175" height="100" as="geometry" />
        </mxCell>
        <mxCell id="CgfKzShkbrhghhsWEq1q-9" value="Sales man can now create invoices " style="rounded=1;whiteSpace=wrap;html=1;fontSize=26;" vertex="1" parent="1">
          <mxGeometry x="515" y="310" width="205" height="80" as="geometry" />
        </mxCell>
        <mxCell id="CgfKzShkbrhghhsWEq1q-11" value="" style="shape=singleArrow;whiteSpace=wrap;html=1;fillColor=#fff2cc;strokeColor=#d6b656;" vertex="1" parent="1">
          <mxGeometry x="220" y="110" width="320" height="180" as="geometry" />
        </mxCell>
        <mxCell id="CgfKzShkbrhghhsWEq1q-12" value="&lt;font style=&quot;font-size: 36px;&quot;&gt;First Path&lt;br&gt;&lt;/font&gt;" style="text;html=1;align=center;verticalAlign=middle;whiteSpace=wrap;rounded=0;" vertex="1" parent="1">
          <mxGeometry x="270" y="70" width="170" height="120" as="geometry" />
        </mxCell>
        <mxCell id="CgfKzShkbrhghhsWEq1q-13" value="" style="shape=singleArrow;whiteSpace=wrap;html=1;fillColor=#fff2cc;strokeColor=#d6b656;rotation=-180;" vertex="1" parent="1">
          <mxGeometry x="195" y="580" width="320" height="180" as="geometry" />
        </mxCell>
        <mxCell id="CgfKzShkbrhghhsWEq1q-14" value="&lt;font style=&quot;font-size: 37px;&quot;&gt;Second Path&lt;br&gt;&lt;/font&gt;" style="text;html=1;align=center;verticalAlign=middle;whiteSpace=wrap;rounded=0;" vertex="1" parent="1">
          <mxGeometry x="220" y="510" width="310" height="120" as="geometry" />
        </mxCell>
        <mxCell id="CgfKzShkbrhghhsWEq1q-21" value="" style="edgeStyle=orthogonalEdgeStyle;rounded=0;orthogonalLoop=1;jettySize=auto;html=1;" edge="1" parent="1" source="CgfKzShkbrhghhsWEq1q-15" target="CgfKzShkbrhghhsWEq1q-16">
          <mxGeometry relative="1" as="geometry" />
        </mxCell>
        <mxCell id="CgfKzShkbrhghhsWEq1q-15" value="&lt;font style=&quot;font-size: 16px;&quot;&gt;Profile and invoice is created on daftra by sales man&lt;/font&gt;" style="rounded=1;whiteSpace=wrap;html=1;" vertex="1" parent="1">
          <mxGeometry x="540" y="810" width="250" height="110" as="geometry" />
        </mxCell>
        <mxCell id="CgfKzShkbrhghhsWEq1q-20" value="" style="edgeStyle=orthogonalEdgeStyle;rounded=0;orthogonalLoop=1;jettySize=auto;html=1;" edge="1" parent="1" source="CgfKzShkbrhghhsWEq1q-16" target="CgfKzShkbrhghhsWEq1q-17">
          <mxGeometry relative="1" as="geometry" />
        </mxCell>
        <mxCell id="CgfKzShkbrhghhsWEq1q-16" value="&lt;font style=&quot;font-size: 17px;&quot;&gt;Add Customer to OneCupCard&lt;/font&gt;" style="rounded=1;whiteSpace=wrap;html=1;" vertex="1" parent="1">
          <mxGeometry x="340" y="815" width="175" height="100" as="geometry" />
        </mxCell>
        <mxCell id="CgfKzShkbrhghhsWEq1q-19" value="" style="edgeStyle=orthogonalEdgeStyle;rounded=0;orthogonalLoop=1;jettySize=auto;html=1;" edge="1" parent="1" source="CgfKzShkbrhghhsWEq1q-17" target="CgfKzShkbrhghhsWEq1q-18">
          <mxGeometry relative="1" as="geometry" />
        </mxCell>
        <mxCell id="CgfKzShkbrhghhsWEq1q-17" value="&lt;font style=&quot;font-size: 17px;&quot;&gt;Create a card for this customer&lt;/font&gt;" style="rounded=1;whiteSpace=wrap;html=1;" vertex="1" parent="1">
          <mxGeometry x="160" y="820" width="150" height="100" as="geometry" />
        </mxCell>
        <mxCell id="CgfKzShkbrhghhsWEq1q-18" value="&lt;font style=&quot;font-size: 17px;&quot;&gt;Add amount of money to this card&lt;/font&gt;" style="rounded=1;whiteSpace=wrap;html=1;" vertex="1" parent="1">
          <mxGeometry x="-134" y="825" width="200" height="90" as="geometry" />
        </mxCell>
      </root>
    </mxGraphModel>
  </diagram>
</mxfile>
